<svg width="21" height="12" viewBox="0 0 21 12" fill="none" xmlns="http://www.w3.org/2000/svg">
<path d="M20.1005 5.43479C21.0105 5.74679 21.0105 6.25319 20.1005 6.56519L6.89501 11.0916C6.6783 11.1658 6.42106 11.2247 6.138 11.2648C5.85494 11.305 5.55159 11.3256 5.24527 11.3255C4.93895 11.3255 4.63567 11.3047 4.35273 11.2645C4.06979 11.2242 3.81274 11.1653 3.59626 11.091C3.37978 11.0167 3.2081 10.9285 3.09102 10.8314C2.97395 10.7344 2.91378 10.6304 2.91394 10.5254C2.91427 10.3133 3.16034 10.1099 3.59801 9.95999L15.148 5.99999L3.59801 2.03999C3.20832 1.88696 3.00263 1.68892 3.02251 1.48589C3.04238 1.28286 3.28635 1.08999 3.7051 0.946266C4.12384 0.802545 4.68612 0.718693 5.27827 0.711662C5.87042 0.704631 6.44827 0.774945 6.89501 0.90839L20.1005 5.43599V5.43479Z" fill="black"/>
</svg>
