<svg width="22" height="20" viewBox="0 0 22 20" xmlns="http://www.w3.org/2000/svg" aria-hidden="true" role="img" class="icon icon-social-vk" style="--vicon-with-gradient-problem__size: 21px;"><g fill="none" fill-rule="evenodd"><g><g fill="#FFF"><path d="M10.762 16.502h1.315s.398-.044.6-.263c.187-.2.181-.578.181-.578s-.025-1.766.793-2.024c.808-.256 1.845 1.706 2.943 2.46.831.57 1.463.446 1.463.446l2.939-.041s1.537-.095.808-1.304c-.06-.1-.424-.894-2.185-2.528-1.843-1.71-1.596-1.434.624-4.392 1.352-1.801 1.892-2.901 1.723-3.372-.161-.449-1.156-.33-1.156-.33l-3.308.02a.751.751 0 00-.424.076c-.178.107-.292.353-.292.353s-.524 1.395-1.222 2.58c-1.473 2.502-2.063 2.635-2.303 2.479-.56-.362-.42-1.455-.42-2.23 0-2.425.367-3.436-.716-3.698-.36-.086-.625-.141-1.545-.153-1.18-.013-2.18.003-2.745.282-.376.185-.667.595-.49.619.219.029.714.133.977.49.34.462.327 1.498.327 1.498s.195 2.855-.455 3.209c-.446.243-1.06-.253-2.371-2.523-.446-.79-.84-1.608-1.181-2.448a.983.983 0 00-.273-.37 1.367 1.367 0 00-.508-.205l-3.144.021s-.472.014-.645.22c-.154.183-.012.56-.012.56s2.46 5.761 5.247 8.658c2.558 2.664 5.455 2.489 5.455 2.489"></path></g></g></g></svg>